<mxGraphModel dx="0" dy="0" grid="1" gridSize="10" guides="1" tooltips="1" connect="1" arrows="1" fold="1" page="0" pageScale="1" background="none" math="0" shadow="0">
  <root>
    <mxCell id="0" />
    <mxCell id="1" parent="0" />
    <mxCell id="node6" parent="1" vertex="1" value="&lt;p style=&quot;margin:0px;margin-top:4px;text-align:center;&quot;&gt;&lt;b&gt;enum.Enum&lt;/b&gt;&lt;/p&gt;&lt;hr size=&quot;1&quot;/&gt;&lt;p style=&quot;margin:0 0 0 4px;line-height:1.6;&quot;&gt; _name_: &lt;br/&gt; _value_: &lt;br/&gt; _ignore_: &lt;br/&gt; _order_: &lt;br/&gt; __order__: &lt;/p&gt;&lt;hr size=&quot;1&quot;/&gt;&lt;p style=&quot;margin:0 0 0 4px;line-height:1.6;&quot;&gt; name(self): &lt;br/&gt; value(self): &lt;br/&gt; _missing_(cls, value: object): &lt;br/&gt; _generate_next_value_(name: str, start: int, count: int, last_values: list[Any]): &lt;br/&gt; __new__(cls, value: object): &lt;br/&gt; __dir__(self): &lt;br/&gt; __hash__(self): &lt;br/&gt; __format__(self, format_spec: str): &lt;br/&gt; __reduce_ex__(self, proto: Unused): &lt;br/&gt; __copy__(self): &lt;br/&gt; __deepcopy__(self, memo: Any): &lt;br/&gt; __signature__(cls): &lt;/p&gt;" style="verticalAlign=top;align=left;overflow=fill;fontSize=14;fontFamily=Helvetica;html=1;rounded=0;shadow=0;comic=0;labelBackgroundColor=none;strokeWidth=1;">
      <mxGeometry x="467" y="963" width="579" height="54" as="geometry" />
    </mxCell>
    <mxCell id="node7" parent="1" vertex="1" value="&lt;p style=&quot;margin:0px;margin-top:4px;text-align:center;&quot;&gt;&lt;b&gt;enum.EnumMeta&lt;/b&gt;&lt;/p&gt;&lt;hr size=&quot;1&quot;/&gt;&lt;p style=&quot;margin:0 0 0 4px;line-height:1.6;&quot;&gt; _member_names_: &lt;br/&gt; _member_map_: &lt;br/&gt; _value2member_map_: &lt;/p&gt;&lt;hr size=&quot;1&quot;/&gt;&lt;p style=&quot;margin:0 0 0 4px;line-height:1.6;&quot;&gt; __new__(             metacls: type[_typeshed.Self],             cls: str,             bases: tuple[type, ...],             classdict: _EnumDict,             *,             boundary: FlagBoundary | None = None,             _simple: bool = False,             **kwds: Any,         ): &lt;br/&gt; __new__(             metacls: type[_typeshed.Self], cls: str, bases: tuple[type, ...], classdict: _EnumDict, **kwds: Any         ): &lt;br/&gt; __new__(metacls: type[_typeshed.Self], cls: str, bases: tuple[type, ...], classdict: _EnumDict): &lt;br/&gt; __prepare__(metacls, cls: str, bases: tuple[type, ...], **kwds: Any): &lt;br/&gt; __prepare__(metacls, cls: str, bases: tuple[type, ...]): &lt;br/&gt; __iter__(self: type[_EnumMemberT]): &lt;br/&gt; __reversed__(self: type[_EnumMemberT]): &lt;br/&gt; __contains__(self: type[Any], value: object): &lt;br/&gt; __contains__(self: type[Any], member: object): &lt;br/&gt; __contains__(self: type[Any], obj: object): &lt;br/&gt; __contains__(self: type[Any], member: object): &lt;br/&gt; __getitem__(self: type[_EnumMemberT], name: str): &lt;br/&gt; __members__(self: type[_EnumMemberT]): &lt;br/&gt; __len__(self): &lt;br/&gt; __bool__(self): &lt;br/&gt; __dir__(self): &lt;br/&gt; __call__(cls: type[_EnumMemberT], value: Any, names: None = None): &lt;br/&gt; __call__(             cls,             value: str,             names: _EnumNames,             *,             module: str | None = None,             qualname: str | None = None,             type: type | None = None,             start: int = 1,             boundary: FlagBoundary | None = None,         ): &lt;br/&gt; __call__(             cls,             value: str,             names: _EnumNames,             *,             module: str | None = None,             qualname: str | None = None,             type: type | None = None,             start: int = 1,         ): &lt;br/&gt; __call__(cls: type[_EnumMemberT], value: Any, *values: Any): &lt;/p&gt;" style="verticalAlign=top;align=left;overflow=fill;fontSize=14;fontFamily=Helvetica;html=1;rounded=0;shadow=0;comic=0;labelBackgroundColor=none;strokeWidth=1;">
      <mxGeometry x="-32" y="422" width="657" height="56" as="geometry" />
    </mxCell>
    <mxCell id="node12" parent="1" vertex="1" value="&lt;p style=&quot;margin:0px;margin-top:4px;text-align:center;&quot;&gt;&lt;b&gt;object&lt;/b&gt;&lt;/p&gt;&lt;hr size=&quot;1&quot;/&gt;&lt;p style=&quot;margin:0 0 0 4px;line-height:1.6;&quot;&gt; __doc__: &lt;br/&gt; __dict__: &lt;br/&gt; __module__: &lt;br/&gt; __annotations__: &lt;/p&gt;&lt;hr size=&quot;1&quot;/&gt;&lt;p style=&quot;margin:0 0 0 4px;line-height:1.6;&quot;&gt; __class__(self): &lt;br/&gt; __class__(self, __type: type[object]): &lt;br/&gt; __init__(self): &lt;br/&gt; __new__(cls): &lt;br/&gt; __setattr__(self, __name: str, __value: Any): &lt;br/&gt; __delattr__(self, __name: str): &lt;br/&gt; __eq__(self, __value: object): &lt;br/&gt; __ne__(self, __value: object): &lt;br/&gt; __str__(self): &lt;br/&gt; __repr__(self): &lt;br/&gt; __hash__(self): &lt;br/&gt; __format__(self, __format_spec: str): &lt;br/&gt; __getattribute__(self, __name: str): &lt;br/&gt; __sizeof__(self): &lt;br/&gt; __reduce__(self): &lt;br/&gt; __reduce_ex__(self, __protocol: SupportsIndex): &lt;br/&gt; __reduce_ex__(self, __protocol: int): &lt;br/&gt; __getstate__(self): &lt;br/&gt; __dir__(self): &lt;br/&gt; __init_subclass__(cls): &lt;br/&gt; __subclasshook__(cls, __subclass: type): &lt;/p&gt;" style="verticalAlign=top;align=left;overflow=fill;fontSize=14;fontFamily=Helvetica;html=1;rounded=0;shadow=0;comic=0;labelBackgroundColor=none;strokeWidth=1;">
      <mxGeometry x="1188" y="505" width="496" height="51" as="geometry" />
    </mxCell>
    <mxCell id="node5" parent="1" vertex="1" value="&lt;p style=&quot;margin:0px;margin-top:4px;text-align:center;&quot;&gt;&lt;b&gt;src.heartpredict.backend.correlation.CorrelationBackend&lt;/b&gt;&lt;/p&gt;&lt;hr size=&quot;1&quot;/&gt;&lt;p style=&quot;margin:0 0 0 4px;line-height:1.6;&quot;&gt; df: &lt;/p&gt;&lt;hr size=&quot;1&quot;/&gt;&lt;p style=&quot;margin:0 0 0 4px;line-height:1.6;&quot;&gt; __init__(             self, project_data: ProjectData         ): &lt;br/&gt; build(cls, project_data: ProjectData): &lt;br/&gt; get_column_correlation_to_death_event(             self, column: Column, method: CorrelationMethod         ): &lt;br/&gt; get_correlation_matrix(self, method: CorrelationMethod): &lt;/p&gt;" style="verticalAlign=top;align=left;overflow=fill;fontSize=14;fontFamily=Helvetica;html=1;rounded=0;shadow=0;comic=0;labelBackgroundColor=none;strokeWidth=1;">
      <mxGeometry x="930" y="685" width="733" height="246" as="geometry" />
    </mxCell>
    <mxCell id="node13" parent="1" vertex="1" value="&lt;p style=&quot;margin:0px;margin-top:4px;text-align:center;&quot;&gt;&lt;b&gt;src.heartpredict.backend.correlation.CorrelationMethod&lt;/b&gt;&lt;/p&gt;&lt;hr size=&quot;1&quot;/&gt;&lt;p style=&quot;margin:0 0 0 4px;line-height:1.6;&quot;&gt; PEARSON: &lt;br/&gt; KENDALL: &lt;br/&gt; SPEARMAN: &lt;/p&gt;" style="verticalAlign=top;align=left;overflow=fill;fontSize=14;fontFamily=Helvetica;html=1;rounded=0;shadow=0;comic=0;labelBackgroundColor=none;strokeWidth=1;">
      <mxGeometry x="-364" y="1035" width="721" height="170" as="geometry" />
    </mxCell>
    <mxCell id="node1" parent="1" vertex="1" value="&lt;p style=&quot;margin:0px;margin-top:4px;text-align:center;&quot;&gt;&lt;b&gt;str&lt;/b&gt;&lt;/p&gt;&lt;hr size=&quot;1&quot;/&gt;&lt;p style=&quot;margin:0 0 0 4px;line-height:1.6;&quot;&gt; __new__(cls, object: object = ...): &lt;br/&gt; __new__(cls, object: ReadableBuffer, encoding: str = ..., errors: str = ...): &lt;br/&gt; capitalize(self: LiteralString): &lt;br/&gt; capitalize(self): &lt;br/&gt; casefold(self: LiteralString): &lt;br/&gt; casefold(self): &lt;br/&gt; center(self: LiteralString, __width: SupportsIndex, __fillchar: LiteralString = &amp;quot; &amp;quot;): &lt;br/&gt; center(self, __width: SupportsIndex, __fillchar: str = &amp;quot; &amp;quot;): &lt;br/&gt; count(self, x: str, __start: SupportsIndex | None = ..., __end: SupportsIndex | None = ...): &lt;br/&gt; encode(self, encoding: str = &amp;quot;utf-8&amp;quot;, errors: str = &amp;quot;strict&amp;quot;): &lt;br/&gt; endswith(         self, __suffix: str | tuple[str, ...], __start: SupportsIndex | None = ..., __end: SupportsIndex | None = ...     ): &lt;br/&gt; expandtabs(self: LiteralString, tabsize: SupportsIndex = 8): &lt;br/&gt; expandtabs(self, tabsize: SupportsIndex = 8): &lt;br/&gt; expandtabs(self: LiteralString, tabsize: int = 8): &lt;br/&gt; expandtabs(self, tabsize: int = 8): &lt;br/&gt; find(self, __sub: str, __start: SupportsIndex | None = ..., __end: SupportsIndex | None = ...): &lt;br/&gt; format(self: LiteralString, *args: LiteralString, **kwargs: LiteralString): &lt;br/&gt; format(self, *args: object, **kwargs: object): &lt;br/&gt; format_map(self, map: _FormatMapMapping): &lt;br/&gt; index(self, __sub: str, __start: SupportsIndex | None = ..., __end: SupportsIndex | None = ...): &lt;br/&gt; isalnum(self): &lt;br/&gt; isalpha(self): &lt;br/&gt; isascii(self): &lt;br/&gt; isdecimal(self): &lt;br/&gt; isdigit(self): &lt;br/&gt; isidentifier(self): &lt;br/&gt; islower(self): &lt;br/&gt; isnumeric(self): &lt;br/&gt; isprintable(self): &lt;br/&gt; isspace(self): &lt;br/&gt; istitle(self): &lt;br/&gt; isupper(self): &lt;br/&gt; join(self: LiteralString, __iterable: Iterable[LiteralString]): &lt;br/&gt; join(self, __iterable: Iterable[str]): &lt;br/&gt; ljust(self: LiteralString, __width: SupportsIndex, __fillchar: LiteralString = &amp;quot; &amp;quot;): &lt;br/&gt; ljust(self, __width: SupportsIndex, __fillchar: str = &amp;quot; &amp;quot;): &lt;br/&gt; lower(self: LiteralString): &lt;br/&gt; lower(self): &lt;br/&gt; lstrip(self: LiteralString, __chars: LiteralString | None = None): &lt;br/&gt; lstrip(self, __chars: str | None = None): &lt;br/&gt; partition(self: LiteralString, __sep: LiteralString): &lt;br/&gt; partition(self, __sep: str): &lt;br/&gt; replace(         self: LiteralString, __old: LiteralString, __new: LiteralString, __count: SupportsIndex = -1     ): &lt;br/&gt; replace(self, __old: str, __new: str, __count: SupportsIndex = -1): &lt;br/&gt; removeprefix(self: LiteralString, __prefix: LiteralString): &lt;br/&gt; removeprefix(self, __prefix: str): &lt;br/&gt; removesuffix(self: LiteralString, __suffix: LiteralString): &lt;br/&gt; removesuffix(self, __suffix: str): &lt;br/&gt; rfind(self, __sub: str, __start: SupportsIndex | None = ..., __end: SupportsIndex | None = ...): &lt;br/&gt; rindex(self, __sub: str, __start: SupportsIndex | None = ..., __end: SupportsIndex | None = ...): &lt;br/&gt; rjust(self: LiteralString, __width: SupportsIndex, __fillchar: LiteralString = &amp;quot; &amp;quot;): &lt;br/&gt; rjust(self, __width: SupportsIndex, __fillchar: str = &amp;quot; &amp;quot;): &lt;br/&gt; rpartition(self: LiteralString, __sep: LiteralString): &lt;br/&gt; rpartition(self, __sep: str): &lt;br/&gt; rsplit(self: LiteralString, sep: LiteralString | None = None, maxsplit: SupportsIndex = -1): &lt;br/&gt; rsplit(self, sep: str | None = None, maxsplit: SupportsIndex = -1): &lt;br/&gt; rstrip(self: LiteralString, __chars: LiteralString | None = None): &lt;br/&gt; rstrip(self, __chars: str | None = None): &lt;br/&gt; split(self: LiteralString, sep: LiteralString | None = None, maxsplit: SupportsIndex = -1): &lt;br/&gt; split(self, sep: str | None = None, maxsplit: SupportsIndex = -1): &lt;br/&gt; splitlines(self: LiteralString, keepends: bool = False): &lt;br/&gt; splitlines(self, keepends: bool = False): &lt;br/&gt; startswith(         self, __prefix: str | tuple[str, ...], __start: SupportsIndex | None = ..., __end: SupportsIndex | None = ...     ): &lt;br/&gt; strip(self: LiteralString, __chars: LiteralString | None = None): &lt;br/&gt; strip(self, __chars: str | None = None): &lt;br/&gt; swapcase(self: LiteralString): &lt;br/&gt; swapcase(self): &lt;br/&gt; title(self: LiteralString): &lt;br/&gt; title(self): &lt;br/&gt; translate(self, __table: _TranslateTable): &lt;br/&gt; upper(self: LiteralString): &lt;br/&gt; upper(self): &lt;br/&gt; zfill(self: LiteralString, __width: SupportsIndex): &lt;br/&gt; zfill(self, __width: SupportsIndex): &lt;br/&gt; maketrans(__x: dict[int, _T] | dict[str, _T] | dict[str | int, _T]): &lt;br/&gt; maketrans(__x: str, __y: str): &lt;br/&gt; maketrans(__x: str, __y: str, __z: str): &lt;br/&gt; __add__(self: LiteralString, __value: LiteralString): &lt;br/&gt; __add__(self, __value: str): &lt;br/&gt; __contains__(self, __key: str): &lt;br/&gt; __eq__(self, __value: object): &lt;br/&gt; __ge__(self, __value: str): &lt;br/&gt; __getitem__(self, __key: SupportsIndex | slice): &lt;br/&gt; __gt__(self, __value: str): &lt;br/&gt; __hash__(self): &lt;br/&gt; __iter__(self: LiteralString): &lt;br/&gt; __iter__(self): &lt;br/&gt; __le__(self, __value: str): &lt;br/&gt; __len__(self): &lt;br/&gt; __lt__(self, __value: str): &lt;br/&gt; __mod__(self: LiteralString, __value: LiteralString | tuple[LiteralString, ...]): &lt;br/&gt; __mod__(self, __value: Any): &lt;br/&gt; __mul__(self: LiteralString, __value: SupportsIndex): &lt;br/&gt; __mul__(self, __value: SupportsIndex): &lt;br/&gt; __ne__(self, __value: object): &lt;br/&gt; __rmul__(self: LiteralString, __value: SupportsIndex): &lt;br/&gt; __rmul__(self, __value: SupportsIndex): &lt;br/&gt; __getnewargs__(self): &lt;/p&gt;" style="verticalAlign=top;align=left;overflow=fill;fontSize=14;fontFamily=Helvetica;html=1;rounded=0;shadow=0;comic=0;labelBackgroundColor=none;strokeWidth=1;">
      <mxGeometry x="813" y="424" width="607" height="53" as="geometry" />
    </mxCell>
    <mxCell id="node3" parent="1" vertex="1" value="&lt;p style=&quot;margin:0px;margin-top:4px;text-align:center;&quot;&gt;&lt;b&gt;typing.Collection&lt;/b&gt;&lt;/p&gt;&lt;hr size=&quot;1&quot;/&gt;&lt;p style=&quot;margin:0 0 0 4px;line-height:1.6;&quot;&gt; __len__(self): &lt;/p&gt;" style="verticalAlign=top;align=left;overflow=fill;fontSize=14;fontFamily=Helvetica;html=1;rounded=0;shadow=0;comic=0;labelBackgroundColor=none;strokeWidth=1;">
      <mxGeometry x="588" y="505" width="257" height="51" as="geometry" />
    </mxCell>
    <mxCell id="node11" parent="1" vertex="1" value="&lt;p style=&quot;margin:0px;margin-top:4px;text-align:center;&quot;&gt;&lt;b&gt;typing.Container&lt;/b&gt;&lt;/p&gt;&lt;hr size=&quot;1&quot;/&gt;&lt;p style=&quot;margin:0 0 0 4px;line-height:1.6;&quot;&gt; __contains__(self, __x: object): &lt;/p&gt;" style="verticalAlign=top;align=left;overflow=fill;fontSize=14;fontFamily=Helvetica;html=1;rounded=0;shadow=0;comic=0;labelBackgroundColor=none;strokeWidth=1;">
      <mxGeometry x="50" y="105" width="333" height="51" as="geometry" />
    </mxCell>
    <mxCell id="node2" parent="1" vertex="1" value="&lt;p style=&quot;margin:0px;margin-top:4px;text-align:center;&quot;&gt;&lt;b&gt;typing.Hashable&lt;/b&gt;&lt;/p&gt;&lt;hr size=&quot;1&quot;/&gt;&lt;p style=&quot;margin:0 0 0 4px;line-height:1.6;&quot;&gt; __hash__(self): &lt;/p&gt;" style="verticalAlign=top;align=left;overflow=fill;fontSize=14;fontFamily=Helvetica;html=1;rounded=0;shadow=0;comic=0;labelBackgroundColor=none;strokeWidth=1;">
      <mxGeometry x="1431" y="105" width="250" height="51" as="geometry" />
    </mxCell>
    <mxCell id="node10" parent="1" vertex="1" value="&lt;p style=&quot;margin:0px;margin-top:4px;text-align:center;&quot;&gt;&lt;b&gt;typing.Iterable&lt;/b&gt;&lt;/p&gt;&lt;hr size=&quot;1&quot;/&gt;&lt;p style=&quot;margin:0 0 0 4px;line-height:1.6;&quot;&gt; __iter__(self): &lt;/p&gt;" style="verticalAlign=top;align=left;overflow=fill;fontSize=14;fontFamily=Helvetica;html=1;rounded=0;shadow=0;comic=0;labelBackgroundColor=none;strokeWidth=1;">
      <mxGeometry x="-118" y="185" width="229" height="51" as="geometry" />
    </mxCell>
    <mxCell id="node4" parent="1" vertex="1" value="&lt;p style=&quot;margin:0px;margin-top:4px;text-align:center;&quot;&gt;&lt;b&gt;typing.Iterator&lt;/b&gt;&lt;/p&gt;&lt;hr size=&quot;1&quot;/&gt;&lt;p style=&quot;margin:0 0 0 4px;line-height:1.6;&quot;&gt; __next__(self): &lt;br/&gt; __iter__(self): &lt;/p&gt;" style="verticalAlign=top;align=left;overflow=fill;fontSize=14;fontFamily=Helvetica;html=1;rounded=0;shadow=0;comic=0;labelBackgroundColor=none;strokeWidth=1;">
      <mxGeometry x="1164" y="185" width="225" height="51" as="geometry" />
    </mxCell>
    <mxCell id="node9" parent="1" vertex="1" value="&lt;p style=&quot;margin:0px;margin-top:4px;text-align:center;&quot;&gt;&lt;b&gt;typing.Reversible&lt;/b&gt;&lt;/p&gt;&lt;hr size=&quot;1&quot;/&gt;&lt;p style=&quot;margin:0 0 0 4px;line-height:1.6;&quot;&gt; __reversed__(self): &lt;/p&gt;" style="verticalAlign=top;align=left;overflow=fill;fontSize=14;fontFamily=Helvetica;html=1;rounded=0;shadow=0;comic=0;labelBackgroundColor=none;strokeWidth=1;">
      <mxGeometry x="-195" y="504" width="263" height="52" as="geometry" />
    </mxCell>
    <mxCell id="node8" parent="1" vertex="1" value="&lt;p style=&quot;margin:0px;margin-top:4px;text-align:center;&quot;&gt;&lt;b&gt;typing.Sequence&lt;/b&gt;&lt;/p&gt;&lt;hr size=&quot;1&quot;/&gt;&lt;p style=&quot;margin:0 0 0 4px;line-height:1.6;&quot;&gt; __getitem__(self, index: int): &lt;br/&gt; __getitem__(self, index: slice): &lt;br/&gt; index(self, value: Any, start: int = 0, stop: int = ...): &lt;br/&gt; count(self, value: Any): &lt;br/&gt; __contains__(self, value: object): &lt;br/&gt; __iter__(self): &lt;br/&gt; __reversed__(self): &lt;/p&gt;" style="verticalAlign=top;align=left;overflow=fill;fontSize=14;fontFamily=Helvetica;html=1;rounded=0;shadow=0;comic=0;labelBackgroundColor=none;strokeWidth=1;">
      <mxGeometry x="552" y="103" width="529" height="54" as="geometry" />
    </mxCell>
    <mxCell id="node0" parent="1" vertex="1" value="&lt;p style=&quot;margin:0px;margin-top:4px;text-align:center;&quot;&gt;&lt;b&gt;typing.Sized&lt;/b&gt;&lt;/p&gt;&lt;hr size=&quot;1&quot;/&gt;&lt;p style=&quot;margin:0 0 0 4px;line-height:1.6;&quot;&gt; __len__(self): &lt;/p&gt;" style="verticalAlign=top;align=left;overflow=fill;fontSize=14;fontFamily=Helvetica;html=1;rounded=0;shadow=0;comic=0;labelBackgroundColor=none;strokeWidth=1;">
      <mxGeometry x="434" y="185" width="205" height="51" as="geometry" />
    </mxCell>
    <mxCell id="edge15" edge="1" value="" parent="1" source="node6" target="node7" style="html=1;rounded=1;edgeStyle=orthogonalEdgeStyle;dashed=1;startArrow=classic;startSize=12;endArrow=none;strokeColor=#595959;exitX=0.250;exitY=0.001;exitDx=0;exitDy=0;entryX=0.500;entryY=1.001;entryDx=0;entryDy=0;">
      <mxGeometry width="50" height="50" relative="1" as="geometry">
        <Array as="points">
          <mxPoint x="611" y="928" />
          <mxPoint x="616" y="928" />
          <mxPoint x="616" y="608" />
          <mxPoint x="296" y="608" />
        </Array>
      </mxGeometry>
    </mxCell>
    <mxCell id="label94" parent="edge15" vertex="1" connectable="0" value="isinstanceof" style="edgeLabel;resizable=0;html=1;align=left;verticalAlign=top;strokeColor=default;">
      <mxGeometry x="216" y="487" as="geometry" />
    </mxCell>
    <mxCell id="edge14" edge="1" value="" parent="1" source="node6" target="node12" style="html=1;rounded=1;edgeStyle=orthogonalEdgeStyle;dashed=0;startArrow=block;startSize=12;endArrow=none;strokeColor=#595959;exitX=0.750;exitY=0.001;exitDx=0;exitDy=0;entryX=0.500;entryY=1.001;entryDx=0;entryDy=0;">
      <mxGeometry width="50" height="50" relative="1" as="geometry">
        <Array as="points">
          <mxPoint x="901" y="668" />
          <mxPoint x="1296" y="668" />
          <mxPoint x="1296" y="588" />
          <mxPoint x="1436" y="588" />
        </Array>
      </mxGeometry>
    </mxCell>
    <mxCell id="edge9" edge="1" value="" parent="1" source="node6" target="node2" style="html=1;rounded=1;edgeStyle=orthogonalEdgeStyle;dashed=1;startArrow=block;startSize=12;endArrow=none;strokeColor=#595959;exitX=0.250;exitY=0.001;exitDx=0;exitDy=0;entryX=0.500;entryY=1.001;entryDx=0;entryDy=0;">
      <mxGeometry width="50" height="50" relative="1" as="geometry">
        <Array as="points">
          <mxPoint x="611" y="928" />
          <mxPoint x="616" y="928" />
          <mxPoint x="616" y="608" />
          <mxPoint x="1716" y="608" />
          <mxPoint x="1716" y="468" />
          <mxPoint x="1556" y="468" />
        </Array>
      </mxGeometry>
    </mxCell>
    <mxCell id="edge4" edge="1" value="" parent="1" source="node7" target="node11" style="html=1;rounded=1;edgeStyle=orthogonalEdgeStyle;dashed=1;startArrow=block;startSize=12;endArrow=none;strokeColor=#595959;exitX=0.500;exitY=0.001;exitDx=0;exitDy=0;entryX=0.750;entryY=1.001;entryDx=0;entryDy=0;">
      <mxGeometry width="50" height="50" relative="1" as="geometry">
        <Array as="points">
          <mxPoint x="296" y="268" />
          <mxPoint x="299" y="268" />
        </Array>
      </mxGeometry>
    </mxCell>
    <mxCell id="edge11" edge="1" value="" parent="1" source="node7" target="node10" style="html=1;rounded=1;edgeStyle=orthogonalEdgeStyle;dashed=1;startArrow=block;startSize=12;endArrow=none;strokeColor=#595959;exitX=0.500;exitY=0.001;exitDx=0;exitDy=0;entryX=0.750;entryY=1.001;entryDx=0;entryDy=0;">
      <mxGeometry width="50" height="50" relative="1" as="geometry">
        <Array as="points">
          <mxPoint x="296" y="268" />
          <mxPoint x="53" y="268" />
        </Array>
      </mxGeometry>
    </mxCell>
    <mxCell id="edge18" edge="1" value="" parent="1" source="node7" target="node4" style="html=1;rounded=1;edgeStyle=orthogonalEdgeStyle;dashed=1;startArrow=block;startSize=12;endArrow=none;strokeColor=#595959;exitX=0.500;exitY=0.001;exitDx=0;exitDy=0;entryX=0.500;entryY=1.001;entryDx=0;entryDy=0;">
      <mxGeometry width="50" height="50" relative="1" as="geometry">
        <Array as="points">
          <mxPoint x="296" y="308" />
          <mxPoint x="1276" y="308" />
        </Array>
      </mxGeometry>
    </mxCell>
    <mxCell id="edge0" edge="1" value="" parent="1" source="node7" target="node8" style="html=1;rounded=1;edgeStyle=orthogonalEdgeStyle;dashed=1;startArrow=block;startSize=12;endArrow=none;strokeColor=#595959;exitX=0.500;exitY=0.001;exitDx=0;exitDy=0;entryX=0.250;entryY=1.001;entryDx=0;entryDy=0;">
      <mxGeometry width="50" height="50" relative="1" as="geometry">
        <Array as="points">
          <mxPoint x="296" y="268" />
          <mxPoint x="684" y="268" />
        </Array>
      </mxGeometry>
    </mxCell>
    <mxCell id="edge13" edge="1" value="" parent="1" source="node7" target="node0" style="html=1;rounded=1;edgeStyle=orthogonalEdgeStyle;dashed=1;startArrow=block;startSize=12;endArrow=none;strokeColor=#595959;exitX=0.500;exitY=0.001;exitDx=0;exitDy=0;entryX=0.500;entryY=1.001;entryDx=0;entryDy=0;">
      <mxGeometry width="50" height="50" relative="1" as="geometry">
        <Array as="points">
          <mxPoint x="296" y="288" />
          <mxPoint x="536" y="288" />
        </Array>
      </mxGeometry>
    </mxCell>
    <mxCell id="edge12" edge="1" value="" parent="1" source="node12" target="node2" style="html=1;rounded=1;edgeStyle=orthogonalEdgeStyle;dashed=1;startArrow=block;startSize=12;endArrow=none;strokeColor=#595959;exitX=0.500;exitY=0.001;exitDx=0;exitDy=0;entryX=0.500;entryY=1.001;entryDx=0;entryDy=0;">
      <mxGeometry width="50" height="50" relative="1" as="geometry">
        <Array as="points">
          <mxPoint x="1436" y="468" />
          <mxPoint x="1556" y="468" />
        </Array>
      </mxGeometry>
    </mxCell>
    <mxCell id="edge2" edge="1" value="" parent="1" source="node5" target="node12" style="html=1;rounded=1;edgeStyle=orthogonalEdgeStyle;dashed=0;startArrow=block;startSize=12;endArrow=none;strokeColor=#595959;exitX=0.500;exitY=0.000;exitDx=0;exitDy=0;entryX=0.500;entryY=1.001;entryDx=0;entryDy=0;">
      <mxGeometry width="50" height="50" relative="1" as="geometry">
        <Array as="points">
          <mxPoint x="1296" y="588" />
          <mxPoint x="1436" y="588" />
        </Array>
      </mxGeometry>
    </mxCell>
    <mxCell id="edge7" edge="1" value="" parent="1" source="node13" target="node6" style="html=1;rounded=1;edgeStyle=orthogonalEdgeStyle;dashed=0;startArrow=block;startSize=12;endArrow=none;strokeColor=#595959;exitX=1.000;exitY=0.500;exitDx=0;exitDy=0;entryX=0.500;entryY=1.001;entryDx=0;entryDy=0;">
      <mxGeometry width="50" height="50" relative="1" as="geometry">
        <Array as="points">
          <mxPoint x="756" y="1120" />
        </Array>
      </mxGeometry>
    </mxCell>
    <mxCell id="edge6" edge="1" value="" parent="1" source="node13" target="node1" style="html=1;rounded=1;edgeStyle=orthogonalEdgeStyle;dashed=0;startArrow=block;startSize=12;endArrow=none;strokeColor=#595959;exitX=0.500;exitY=0.000;exitDx=0;exitDy=0;entryX=0.500;entryY=1.001;entryDx=0;entryDy=0;">
      <mxGeometry width="50" height="50" relative="1" as="geometry">
        <Array as="points">
          <mxPoint x="-4" y="573" />
          <mxPoint x="1116" y="573" />
        </Array>
      </mxGeometry>
    </mxCell>
    <mxCell id="edge8" edge="1" value="" parent="1" source="node1" target="node2" style="html=1;rounded=1;edgeStyle=orthogonalEdgeStyle;dashed=1;startArrow=block;startSize=12;endArrow=none;strokeColor=#595959;exitX=0.750;exitY=0.001;exitDx=0;exitDy=0;entryX=0.500;entryY=1.001;entryDx=0;entryDy=0;">
      <mxGeometry width="50" height="50" relative="1" as="geometry">
        <Array as="points">
          <mxPoint x="1268" y="388" />
          <mxPoint x="1276" y="388" />
          <mxPoint x="1276" y="368" />
          <mxPoint x="1556" y="368" />
        </Array>
      </mxGeometry>
    </mxCell>
    <mxCell id="edge1" edge="1" value="" parent="1" source="node1" target="node4" style="html=1;rounded=1;edgeStyle=orthogonalEdgeStyle;dashed=1;startArrow=block;startSize=12;endArrow=none;strokeColor=#595959;exitX=0.750;exitY=0.001;exitDx=0;exitDy=0;entryX=0.500;entryY=1.001;entryDx=0;entryDy=0;">
      <mxGeometry width="50" height="50" relative="1" as="geometry">
        <Array as="points">
          <mxPoint x="1268" y="388" />
          <mxPoint x="1276" y="388" />
        </Array>
      </mxGeometry>
    </mxCell>
    <mxCell id="edge3" edge="1" value="" parent="1" source="node1" target="node8" style="html=1;rounded=1;edgeStyle=orthogonalEdgeStyle;dashed=0;startArrow=block;startSize=12;endArrow=none;strokeColor=#595959;exitX=0.250;exitY=0.001;exitDx=0;exitDy=0;entryX=0.750;entryY=1.001;entryDx=0;entryDy=0;">
      <mxGeometry width="50" height="50" relative="1" as="geometry">
        <Array as="points">
          <mxPoint x="964" y="388" />
          <mxPoint x="948" y="388" />
        </Array>
      </mxGeometry>
    </mxCell>
    <mxCell id="edge5" edge="1" value="" parent="1" source="node1" target="node0" style="html=1;rounded=1;edgeStyle=orthogonalEdgeStyle;dashed=1;startArrow=block;startSize=12;endArrow=none;strokeColor=#595959;exitX=0.750;exitY=0.001;exitDx=0;exitDy=0;entryX=0.500;entryY=1.001;entryDx=0;entryDy=0;">
      <mxGeometry width="50" height="50" relative="1" as="geometry">
        <Array as="points">
          <mxPoint x="1268" y="388" />
          <mxPoint x="1276" y="388" />
          <mxPoint x="1276" y="328" />
          <mxPoint x="536" y="328" />
        </Array>
      </mxGeometry>
    </mxCell>
    <mxCell id="edge10" edge="1" value="" parent="1" source="node3" target="node11" style="html=1;rounded=1;edgeStyle=orthogonalEdgeStyle;dashed=0;startArrow=block;startSize=12;endArrow=none;strokeColor=#595959;exitX=0.250;exitY=0.001;exitDx=0;exitDy=0;entryX=0.250;entryY=1.001;entryDx=0;entryDy=0;">
      <mxGeometry width="50" height="50" relative="1" as="geometry">
        <Array as="points">
          <mxPoint x="652" y="408" />
          <mxPoint x="136" y="408" />
          <mxPoint x="136" y="288" />
          <mxPoint x="133" y="288" />
        </Array>
      </mxGeometry>
    </mxCell>
    <mxCell id="edge16" edge="1" value="" parent="1" source="node3" target="node10" style="html=1;rounded=1;edgeStyle=orthogonalEdgeStyle;dashed=0;startArrow=block;startSize=12;endArrow=none;strokeColor=#595959;exitX=0.250;exitY=0.001;exitDx=0;exitDy=0;entryX=0.250;entryY=1.001;entryDx=0;entryDy=0;">
      <mxGeometry width="50" height="50" relative="1" as="geometry">
        <Array as="points">
          <mxPoint x="652" y="408" />
          <mxPoint x="136" y="408" />
          <mxPoint x="136" y="388" />
          <mxPoint x="-64" y="388" />
          <mxPoint x="-64" y="268" />
          <mxPoint x="-61" y="268" />
        </Array>
      </mxGeometry>
    </mxCell>
    <mxCell id="edge19" edge="1" value="" parent="1" source="node3" target="node0" style="html=1;rounded=1;edgeStyle=orthogonalEdgeStyle;dashed=1;startArrow=block;startSize=12;endArrow=none;strokeColor=#595959;exitX=0.750;exitY=0.001;exitDx=0;exitDy=0;entryX=0.500;entryY=1.001;entryDx=0;entryDy=0;">
      <mxGeometry width="50" height="50" relative="1" as="geometry">
        <Array as="points">
          <mxPoint x="780" y="388" />
          <mxPoint x="536" y="388" />
        </Array>
      </mxGeometry>
    </mxCell>
    <mxCell id="edge17" edge="1" value="" parent="1" source="node9" target="node10" style="html=1;rounded=1;edgeStyle=orthogonalEdgeStyle;dashed=0;startArrow=block;startSize=12;endArrow=none;strokeColor=#595959;exitX=0.500;exitY=0.001;exitDx=0;exitDy=0;entryX=0.250;entryY=1.001;entryDx=0;entryDy=0;">
      <mxGeometry width="50" height="50" relative="1" as="geometry">
        <Array as="points">
          <mxPoint x="-64" y="268" />
          <mxPoint x="-61" y="268" />
        </Array>
      </mxGeometry>
    </mxCell>
  </root>
</mxGraphModel>